<svg t="1647495348889" class="icon" viewBox="0 0 1024 1024" version="1.1" xmlns="http://www.w3.org/2000/svg" p-id="2322" width="36" height="36"><path d="M962.56 444.928l-401.408-350.208c-17.408-16.896-39.936-26.112-64.512-26.112s-47.104 9.216-64.512 26.624L31.232 455.168c-12.8 11.264-13.824 30.72-2.56 43.52 6.144 6.656 14.336 10.24 23.04 10.24 7.168 0 14.848-2.56 20.48-7.68l22.528-19.968v351.232c0 50.688 41.472 92.16 92.16 92.16h623.104c50.688 0 92.16-41.472 92.16-92.16v-358.4l20.48 17.92c12.8 11.264 32.256 9.728 43.52-3.072 10.752-13.824 9.216-32.768-3.584-44.032zM447.488 858.112V696.32c0-11.264 9.728-20.992 20.992-20.992h57.856c11.264 0 20.992 9.728 20.992 20.992v161.792H447.488z m393.216-427.008v400.896c0 16.896-13.824 30.72-30.72 30.72h-201.216V696.32c0-45.568-36.864-82.432-82.432-82.432H468.48c-45.568 0-82.432 36.864-82.432 82.432v166.4H186.88c-16.896 0-30.72-13.824-30.72-30.72V431.104c0-1.536 0-3.584-0.512-5.12l318.464-286.208 1.024-1.024c11.776-11.776 31.744-11.776 43.52 0l0.512 0.512 322.56 281.6c-0.512 3.584-1.024 6.656-1.024 10.24z" fill="#fff" p-id="2323"></path></svg>