<svg t="1649138868714" class="icon" viewBox="0 0 1024 1024" version="1.1" xmlns="http://www.w3.org/2000/svg" p-id="4821" width="36" height="36"><path d="M831.296 648.32l17.344 0.064c8.448 0.128 13.248 1.216 14.464 8.64l0.32 4.288 6.4 38.848c10.24 0 20.544 4.16 30.848 9.152l7.68 3.84 32.128-19.456c11.008-5.568 17.28-1.6 22.912 3.712l2.816 2.752 6.4 6.464c5.504 11.136 11.008 17.472 8.448 23.168l-2.048 2.752-19.2 32.384c4.8 9.728 5.952 19.456 8.96 29.184l3.84 9.664 38.528 6.528c11.264 0 12.672 4.928 12.8 14.848v22.08c-0.128 8.448-1.152 13.312-8.512 14.528l-4.288 0.32-38.528 6.464c0 10.368-4.096 20.736-9.024 31.104l-3.84 7.744 25.728 32.384c5.504 11.136 1.536 17.472-3.712 23.168l-2.752 2.752-6.4 6.464c-11.008 5.568-17.28 11.136-22.912 8.512l-2.816-1.984-32.064-19.456c-9.664 4.864-19.328 6.08-28.928 9.088l-9.6 3.84-6.464 38.912c0 11.328-4.928 12.736-14.72 12.928h-21.888c-8.448-0.192-13.312-1.28-14.464-8.704l-0.32-4.224-6.4-38.912c-10.304 0-20.608-4.096-30.848-9.088l-7.68-3.84-32.192 19.456c-11.008 5.504-17.28 1.536-22.912-3.776l-2.752-2.752-6.4-6.4c-5.504-11.136-11.072-17.472-8.448-23.168l1.984-2.816 19.264-32.384c-4.8-9.664-6.016-19.392-8.96-29.12l-3.84-9.728-38.592-6.4c-11.2 0-12.608-4.992-12.8-14.912v-22.08c0.128-8.512 1.216-13.376 8.576-14.592l4.224-0.256 38.592-6.528c0-10.368 4.096-20.736 8.96-31.04l3.84-7.808-19.2-32.384c-5.568-5.568-1.6-11.072-0.384-20.736l0.32-5.12 6.4-6.528c11.072-5.568 17.344-11.072 22.976-8.512l2.752 2.048 32.128 19.456c9.6-4.864 19.264-6.08 28.928-9.152l9.6-3.84 6.4-38.848c0-12.928 6.464-12.928 19.328-12.928zM219.264 59.456l1.088 73.6H109.312c-17.024 0-31.552 13.312-34.56 31.104l-0.64 6.912V272.64l875.584-1.152v-100.48a37.248 37.248 0 0 0-28.864-37.376l-6.272-0.64-110.08 2.624V59.392h142.08c39.808 0 72.128 32.064 76.288 71.744l0.448 8.64V537.6a37.12 37.12 0 0 1-74.24 0l-0.448-204.672-875.52 1.088v571.136c0 10.048 4.288 20.096 10.624 26.816a42.496 42.496 0 0 0 18.56 10.368l7.04 0.768H547.84a36.864 36.864 0 0 1 0 73.728H75.52c-38.72 0-71.04-31.168-75.136-71.616L0 936.384V139.776c0-41.728 29.696-75.584 67.392-80l8.192-0.384h143.68zM844.16 752c-44.928 0-83.456 38.848-83.456 84.16 0 45.376 38.528 84.224 83.456 84.224 44.992 0 83.52-38.848 83.52-84.224 0-45.312-38.528-84.16-83.52-84.16z m0 45.312c19.328 0 38.592 19.456 38.592 38.848 0 19.456-19.264 38.848-38.592 38.848-19.2 0-38.528-19.392-38.528-38.848 0-19.392 19.264-38.848 38.528-38.848zM407.424 353.6c43.136 14.528 71.872 21.76 71.872 21.76-6.272 0-12.608 11.072-18.88 23.552l-2.688 5.44h244.48v50.752H565.504v50.688h115.008v57.984H565.568v65.28h165.376v50.688H565.568v115.968H500.864v-115.968H299.52V629.12h79.04V527.552l-7.168 7.232c-7.168 14.528-14.4 21.76-28.8 36.288a218.496 218.496 0 0 0-50.304-36.288c50.368-50.688 86.272-108.672 115.072-181.12z m93.44 210.176h-57.536v65.28h57.536v-65.28z m0-108.672H428.992c-5.76 11.52-16.128 27.776-27.392 41.28l-8.576 9.408h107.84v-50.688zM289.088 0c18.752 0 33.088 16.512 33.088 35.328v151.936c0 20.032-15.36 35.328-33.088 35.328-18.752 0-33.088-16.448-33.088-35.328V35.328C256 15.36 270.336 0 289.088 0z m445.824 0c18.752 0 33.088 16.512 33.088 35.328v151.936c0 20.032-15.424 35.328-33.088 35.328s-33.088-16.448-33.088-35.328V35.328c0-20.032 14.336-35.328 33.088-35.328z m-91.584 64.768c18.752 0 33.088 15.36 33.088 35.328 0 20.032-14.336 35.328-33.088 35.328H379.52c-17.664 0-33.088-15.296-33.088-35.328 0-20.032 14.336-35.328 33.088-35.328z" fill="#ffffff" p-id="4822"></path></svg>