<svg t="1648006819959" class="icon" viewBox="0 0 1024 1024" version="1.1" xmlns="http://www.w3.org/2000/svg" p-id="13813" width="36" height="36"><path d="M694.83 592.92l-2.41-1.38c0.79 0.46 1.58 0.94 2.41 1.38zM731.26 521.59c1.28 0.72 2.56 1.44 3.82 2.17a40.88 40.88 0 0 0-3.82-2.17z" fill="#2c2c2c" p-id="13814"></path><path d="M694.83 592.92a40 40 0 0 0 40.25-69.16c-1.26-0.73-2.54-1.45-3.82-2.17a444.83 444.83 0 0 0-68.19-31.11A239.54 239.54 0 0 0 752 304c0-132.55-107.45-240-240-240S272 171.45 272 304a239.49 239.49 0 0 0 88.91 186.46C187.83 552.46 64 717.93 64 912.34v7.58c0 1.06 0 2.1 0.13 3.13a40 40 0 0 0 80-2.85v-0.28c0-0.71 0-1.41-0.06-2.11v-5.48c0-203.24 164.76-368 368-368a366.28 366.28 0 0 1 180.42 47.2zM512 464a160 160 0 1 1 160-160 160 160 0 0 1-160 160zM923.33 880H644.67c-20.25 0-36.67 17.91-36.67 40s16.42 40 36.67 40h278.66c20.25 0 36.67-17.91 36.67-40s-16.42-40-36.67-40zM608 808.5c0 22.09 16.42 40 36.67 40h214.66c20.25 0 36.67-17.91 36.67-40s-16.42-40-36.67-40H644.67c-20.25 0-36.67 17.91-36.67 40z" fill="#2c2c2c" p-id="13815"></path><path d="M608 680c0 22.09 16.42 40 36.67 40h150.66c20.25 0 36.67-17.91 36.67-40s-16.42-40-36.67-40H644.67c-20.25 0-36.67 17.91-36.67 40z" fill="#2c2c2c" p-id="13816"></path></svg>