<svg t="1648003624334" class="icon" viewBox="0 0 1024 1024" version="1.1" xmlns="http://www.w3.org/2000/svg" p-id="12092" width="36" height="36"><path d="M620.617143 267.117714a223.817143 223.817143 0 0 0-65.901714-159.232 223.817143 223.817143 0 0 0-159.232-65.828571 223.817143 223.817143 0 0 0-159.158858 65.828571 223.817143 223.817143 0 0 0-65.901714 159.232c0 60.050286 23.405714 116.662857 65.828572 159.158857a223.597714 223.597714 0 0 0 159.232 65.901715 223.817143 223.817143 0 0 0 159.232-65.828572 223.817143 223.817143 0 0 0 65.828571-159.232zM391.899429 428.178286a161.645714 161.645714 0 0 1-157.476572-157.476572 161.353143 161.353143 0 0 1 164.644572-164.717714A161.645714 161.645714 0 0 1 556.617143 263.533714a161.353143 161.353143 0 0 1-164.717714 164.644572z m-54.857143 106.788571H204.8A148.918857 148.918857 0 0 0 56.027429 683.885714v215.113143a31.963429 31.963429 0 1 0 64 0v-215.04c0-22.528 8.850286-43.885714 24.941714-59.977143 16.091429-16.091429 37.449143-25.014857 59.977143-25.014857h132.022857a31.963429 31.963429 0 1 0 0-64z m546.889143 10.020572a270.628571 270.628571 0 0 0-192.658286-79.725715c-72.704 0-141.165714 28.233143-192.585143 79.725715a270.628571 270.628571 0 0 0-79.725714 192.585142c0 72.704 28.233143 141.165714 79.725714 192.658286a270.994286 270.994286 0 0 0 192.585143 79.725714c72.704 0 141.165714-28.233143 192.658286-79.725714a270.994286 270.994286 0 0 0 79.725714-192.658286c0-72.704-28.233143-141.165714-79.725714-192.585142zM691.2 946.029714a208.676571 208.676571 0 0 1-208.384-208.457143c0-114.834286 93.476571-208.384 208.457143-208.384 114.834286 0 208.384 93.476571 208.384 208.457143 0 114.834286-93.549714 208.384-208.457143 208.384z m151.625143-270.848l-85.065143-12.434285a17.188571 17.188571 0 0 1-13.019429-9.362286L706.706286 576.365714a17.261714 17.261714 0 0 0-30.939429 0l-38.034286 77.092572a17.188571 17.188571 0 0 1-13.019428 9.435428l-85.138286 12.434286a17.261714 17.261714 0 0 0-9.508571 29.330286l61.513143 59.977143c4.096 4.022857 5.851429 9.728 5.046857 15.36l-14.555429 84.845714c-2.340571 14.043429 12.434286 24.722286 25.014857 18.139428l76.068572-40.009142a17.408 17.408 0 0 1 16.091428 0l76.068572 40.009142a17.261714 17.261714 0 0 0 25.014857-18.212571l-14.555429-84.845714a17.188571 17.188571 0 0 1 5.046857-15.213715l61.586286-59.977142a17.188571 17.188571 0 0 0-9.508571-29.476572z" fill="#745EB3" p-id="12093"></path></svg>