<svg t="1648003693466" class="icon" viewBox="0 0 1024 1024" version="1.1" xmlns="http://www.w3.org/2000/svg" p-id="12925" width="36" height="36"><path d="M215.04 286.72c73.728 0 133.12 59.392 133.12 133.12v348.16c0 73.728-59.392 133.12-133.12 133.12S81.92 841.728 81.92 768v-348.16c0-73.728 59.392-133.12 133.12-133.12z" fill="#EAF3FF" p-id="12926"></path><path d="M215.04 901.12C141.312 901.12 81.92 841.728 81.92 768v-348.16c0-73.728 59.392-133.12 133.12-133.12s133.12 59.392 133.12 133.12v348.16c0 73.728-59.392 133.12-133.12 133.12z m0-552.96C176.128 348.16 143.36 380.928 143.36 419.84v348.16c0 38.912 32.768 71.68 71.68 71.68s71.68-32.768 71.68-71.68v-348.16c0-38.912-32.768-71.68-71.68-71.68z" fill="#3889FF" p-id="12927"></path><path d="M372.736 337.92c90.112-49.152 112.64-102.4 135.168-149.504 24.576-55.296 49.152-112.64 169.984-92.16 2.048 0 4.096 2.048 6.144 2.048 36.864 16.384 61.44 43.008 71.68 77.824 14.336 53.248-8.192 114.688-28.672 157.696l110.592-2.048c38.912 0 73.728 14.336 100.352 40.96 26.624 26.624 38.912 63.488 36.864 102.4l-4.096 71.68c-4.096 67.584-34.816 165.888-69.632 223.232l-14.336 24.576c-30.72 51.2-102.4 94.208-161.792 94.208-16.384 0-102.4 2.048-184.32 2.048-57.344 0-112.64 0-133.12-4.096-59.392-8.192-114.688-51.2-116.736-53.248l38.912-47.104s45.056 34.816 86.016 40.96c40.96 6.144 235.52 2.048 309.248 2.048 38.912 0 90.112-30.72 110.592-63.488l14.336-24.576c28.672-49.152 57.344-139.264 61.44-196.608l4.096-71.68c2.048-20.48-6.144-40.96-18.432-55.296-14.336-14.336-32.768-22.528-55.296-22.528l-165.888 4.096c-12.288 0-22.528-6.144-28.672-16.384-6.144-10.24-4.096-22.528 2.048-32.768 18.432-26.624 63.488-104.448 49.152-155.648-4.096-16.384-14.336-28.672-32.768-36.864-69.632-10.24-77.824 4.096-100.352 55.296-22.528 51.2-53.248 120.832-161.792 180.224-4.096 2.048-61.44 20.48-65.536 20.48l-18.432-51.2m-12.288 32.768z" fill="#3889FF" p-id="12928"></path><path d="M522.24 573.44c-16.384 0-30.72-14.336-30.72-30.72s14.336-30.72 30.72-30.72 30.72 14.336 30.72 30.72-14.336 30.72-30.72 30.72z m143.36 0c-16.384 0-30.72-14.336-30.72-30.72s14.336-30.72 30.72-30.72 30.72 14.336 30.72 30.72-14.336 30.72-30.72 30.72zM532.48 655.36c0-12.288 8.192-20.48 20.48-20.48s20.48 8.192 20.48 20.48 8.192 20.48 20.48 20.48 20.48-8.192 20.48-20.48 8.192-20.48 20.48-20.48 20.48 8.192 20.48 20.48c0 34.816-26.624 61.44-61.44 61.44s-61.44-26.624-61.44-61.44z" fill="#3988FF" p-id="12929"></path></svg>