<svg t="1648003004327" class="icon" viewBox="0 0 1024 1024" version="1.1" xmlns="http://www.w3.org/2000/svg" p-id="7215" width="36" height="36"><path d="M568.832 1019.392h-98.816c-20.992 0-37.888-16.896-37.888-37.888V242.688c0-20.992 16.896-37.888 37.888-37.888h98.816c20.992 0 37.888 16.896 37.888 37.888v738.816c-0.512 20.992-17.408 37.888-37.888 37.888zM917.504 1019.392h-98.816c-20.992 0-37.888-16.896-37.888-37.888V68.096c0-20.992 16.896-37.888 37.888-37.888h98.816c20.992 0 37.888 16.896 37.888 37.888v912.896c0 21.504-16.896 38.4-37.888 38.4zM232.96 804.352c-45.568 14.848-80.384 90.624-89.088 116.224-7.168 20.992-29.184 33.28-50.176 29.184l-6.144-1.536c-1.536-0.512-3.072-1.536-4.096-2.048v35.328c0 20.992 16.896 37.888 37.888 37.888h98.816c20.992 0 37.888-16.896 37.888-37.888v-179.2c-13.312-2.048-21.504 0.512-25.088 2.048zM204.8 719.872c14.336-4.608 32.256-8.192 52.736-6.656v-179.712c0-20.992-16.896-37.888-37.888-37.888h-98.816c-20.992 0-37.888 16.896-37.888 37.888v304.64c23.04-43.008 62.464-98.816 121.856-118.272z" fill="#5161C4" p-id="7216"></path><path d="M59.392 891.904c-7.168 21.504 3.072 45.056 23.552 54.272v-107.52c-13.824 26.112-21.504 47.616-23.552 53.248zM801.28 390.144c-24.064-4.608-47.104 11.264-51.712 35.328-4.608 24.064 11.264 47.104 35.328 51.712l76.8 14.848c-98.816 68.096-122.88 57.344-155.136 41.984-28.672-13.312-68.096-31.744-135.168-18.432-82.944 16.384-123.392 96.768-156.16 161.792-13.824 27.648-36.864 73.728-50.176 77.312-1.024 0.512-7.168-0.512-18.432-8.192-32.768-22.528-62.976-31.744-88.576-33.28v89.088c9.728 1.536 22.528 6.144 37.888 16.896 31.232 21.504 61.952 28.672 91.136 21.504 52.736-13.312 79.36-66.56 108.032-123.392 26.624-52.736 53.76-107.008 94.208-114.688 38.912-7.68 56.32 0.512 80.896 11.776 57.856 26.624 109.568 39.424 232.96-43.008l-18.432 94.72c-4.608 24.064 11.264 47.104 35.328 51.712 24.064 4.608 47.104-11.264 51.712-35.328l48.128-251.392-218.624-40.96z" fill="#CB522E" p-id="7217"></path><path d="M204.8 719.872c-59.392 19.456-98.816 75.264-121.856 118.272v107.52c1.536 0.512 2.56 1.536 4.096 2.048l6.144 1.536c21.504 4.096 43.008-8.192 50.176-29.184 8.704-25.088 43.52-100.864 89.088-116.224 3.584-1.024 11.776-4.096 24.576-1.536v-89.088c-20.48-1.536-37.888 2.048-52.224 6.656z" fill="#3E3E9B" p-id="7218"></path></svg>