<svg t="1648003053247" class="icon" viewBox="0 0 1041 1024" version="1.1" xmlns="http://www.w3.org/2000/svg" p-id="8793" width="36" height="36"><path d="M21.823257 793.419074a628.060388 628.060388 0 0 1 325.192888-54.552761c172.33058 22.554053 295.123249-4.238844 417.721308-94.840628 132.236107-97.535973 208.958567-113.153405 222.454753-89.634817 13.493753 23.518588 19.276095 411.938966-21.207597 417.336954L59.989878 931.826742s-68.816439-33.736816-38.55584-138.407668h0.389219z m0 0" fill="#D2EAFF" p-id="8794"></path><path d="M286.874435 633.038749c30.108561 32.111825 75.611968 44.751728 117.973645 32.772281 42.513716-12.357719 75.211802-46.447265 85.777895-89.446289a130.103914 130.103914 0 0 0-31.229999-122.405882c-30.041663-31.818694-75.211802-44.428189-117.392249-32.768632-42.471145 12.424616-75.141256 46.486187-85.779111 89.441423a130.687743 130.687743 0 0 0 31.419744 122.405882h-0.769925z m596.992158-349.291656H568.117144c-20.912034 0.523014-37.593738 17.631643-37.588873 38.55584v9.0603c-0.004865 20.920548 16.676839 38.029177 37.588873 38.552191h315.749449c20.912034-0.523014 37.596171-17.631643 37.588873-38.552191v-9.0603c0.007298-20.924197-16.676839-38.032826-37.588873-38.55584z m0 0" fill="#2E85ED" p-id="8795"></path><path d="M860.924537 13.878108h-680.647591c-101.666565 2.318289-182.280003 86.467543-180.237817 188.138973v620.123959c-2.042186 101.670213 78.571253 185.824333 180.237817 188.137757h680.648807c101.59237-2.41681 182.090259-86.536873 180.044424-188.137757V202.017081c1.942449-101.557097-78.49949-185.611479-180.04564-188.138973z m105.058855 808.262932a107.383226 107.383226 0 0 1-29.80205 76.608127 107.407552 107.407552 0 0 1-75.256805 33.076359h-289.141432a41.461607 41.461607 0 0 0 12.529219-31.229999v-103.324397a104.639228 104.639228 0 0 0-3.085781-24.861395l175.801931-183.515775c10.089299-10.871387 10.089299-27.68202 0-38.550975a25.444008 25.444008 0 0 0-37.202086 0L554.815567 723.83271a98.68417 98.68417 0 0 0-71.515433-30.843213H262.392529a103.32318 103.32318 0 0 0-101.201934 105.632955v101.974291a41.625809 41.625809 0 0 0 12.339474 31.035389c-56.65333-4.760641-99.90413-52.646802-98.892159-109.491092V202.017081a107.366197 107.366197 0 0 1 105.444426-109.682054h680.842201a107.378361 107.378361 0 0 1 75.256805 33.07271 107.386875 107.386875 0 0 1 29.80205 76.609344v620.123959z m0 0" fill="#2E85ED" p-id="8796"></path></svg>