<svg t="1648002911929" class="icon" viewBox="0 0 1024 1024" version="1.1" xmlns="http://www.w3.org/2000/svg" p-id="5256" width="36" height="36"><path d="M873.74603164 84.53968261L873.74603164 84.53968261c-1.26984112 0-2.53968223 0-3.49206328 1e-8-0.31746006 0-0.95238106 0-1.26984112 0 0 0-209.20634912 0-356.50793671 0l-1.26984112 0-1.26984111 0c-146.98412666 0-356.19047578 0-356.19047578 0-0.31746006 0-0.95238106 0-1.26984111 0-1.26984112 0-1.90476211 0-3.17460323 0l-0.31746005 0c-24.44444473 2.22222217-42.53968213 20.6349205-42.53968214 42.85714306l0 256.50793653 0 112.06349209 0 267.3015873 0 47.30158741 0 86.34920625c0 23.49206367 21.26984151 42.85714307 47.3015874 42.85714306l761.90476202 0 0-178.09523789 0-264.44444415L915.65079365 127.39682568C916.28571465 104.85714307 897.87301631 86.76190479 873.74603164 84.53968261zM834.0634918 400.73015849c0.31746006 4.7619044-10.15872979 5.71428545-12.69841289 9.20634961 20.31746045 4.12698427 25.07936484 25.71428584 26.98412695 42.85714307 9.20634961 83.80952402-54.92063497 206.03174589-159.99999961 225.07936524-3.80952422 0.63492099-7.3015875 0.95238106-11.11111084 0.95238106-34.28571445-0.31746006-57.77777812-33.9682544-61.58730147-67.61904786-5.39682539-49.20634951 20.31746045-106.98412676 48.88888858-146.0317456 34.28571445-46.34920635 97.77777803-87.61904737 126.0317461-90.79365059 0.63492099 0 0.95238106 0 1.58730117 0C810.25396807 373.11111143 833.11111075 391.20634883 834.0634918 400.73015849zM222.95238066 220.73015849c0-8.88888867 7.3015875-16.19047617 16.50793624-16.19047617l506.34920654 0c8.88888867 0 16.50793623 7.3015875 16.50793623 16.19047617l0 1.90476211c0 8.88888867-7.3015875 16.19047617-16.50793623 16.19047617L239.14285684 238.82539678c-8.88888867 0-16.50793623-7.3015875-16.50793624-16.19047618L222.6349206 220.73015849zM599.77777783 479.46031719c9.20634961 83.80952402-54.92063497 206.03174589-159.9999996 225.07936523-3.80952422 0.63492099-7.3015875 0.95238106-11.11111085 0.95238106-34.28571445-0.31746006-57.77777812-33.9682544-61.58730146-67.61904786-5.39682539-49.20634951 20.31746045-106.98412676 48.88888857-146.0317456 20.31746045-27.61904795 51.11111074-53.33333291 78.41269864-70.15873008 0.31746006-0.31746006 0.95238106-0.63492099 1.26984111-0.95238106 0.95238106-0.63492099 1.90476211-1.26984112 2.85714316-1.90476211 5.71428545-3.17460322 11.11111084-6.34920645 16.19047617-8.57142861 0 0 0.31746006 0 0.31746007 0 0.95238106-0.31746006 1.90476211-0.95238106 2.85714316-1.26984111 0.31746006-0.31746006 0.63492099-0.31746006 0.95238106-0.634921 0.63492099-0.31746006 1.26984112-0.63492099 1.90476211-0.95238105 0.63492099-0.31746006 1.26984112-0.63492099 1.90476211-0.95238106 0.31746006 0 0.63492099-0.31746006 0.95238105-0.31746006 6.98412656-2.85714317 13.33333301-4.44444433 18.41269833-5.07936533 0.31746006 0 0.63492099 0 0.95238106 0 17.77777734-1.58730117 41.26984102 16.82539717 42.22222207 26.34920596 0.31746006 4.7619044-10.15872979 5.71428545-12.69841289 9.20634961C593.42857138 440.41269834 598.19047578 461.9999999 599.77777783 479.46031719zM222.95238066 308.0317458c0-8.88888867 7.3015875-16.19047617 16.50793624-16.19047617l252.06349218 0c8.88888867 0 16.50793623 7.3015875 16.50793623 16.19047617l0 1.90476211c0 8.88888867-7.3015875 16.19047617-16.50793623 16.19047617L239.14285684 326.12698408c-8.88888867 0-16.50793623-7.3015875-16.50793624-16.19047617L222.6349206 308.0317458zM170.88888887 703.26984131c-0.31746006-1.26984112-0.31746006-2.85714317-0.31746006-4.44444434-0.63492099-23.49206367 12.0634919-69.20634902 21.2698415-88.88888848 26.34920596-56.19047607 56.50793613-106.34920664 67.61904786-124.44444404l-0.95238106-0.63492099-39.9999999 20.31746045c-1.58730117 1.26984112-9.52380967 5.39682539-11.42857178 5.71428544-3.80952422 0.31746006-4.44444433-4.7619044-4.44444434-7.93650761 0-0.63492099 0-1.58730117 0-1.90476211-0.31746006-12.69841289 7.93650762-17.46031729 17.77777735-24.76190479 13.65079395-9.84126972 60.00000029-44.44444424 72.38095224-45.71428534 11.11111084-1.26984112 22.85714268 21.26984151 23.49206367 27.936508 0.31746006 1.58730117 0.31746006 3.17460322 0.31746007 4.44444434 0 9.84126972-6.34920645 22.22222256-55.55555596 130.79365048-11.74603183 25.71428584-38.09523779 84.76190508-39.04761885 115.87301632 0 1.90476211 0 3.80952422 0.31746006 5.71428544 0 0.31746006 0 0.95238106 0.31746006 1.26984112 0.63492099 4.44444433 1.90476211 8.57142862 2.53968222 13.01587295 0 0.31746006 0 0.63492099 0.31746006 0.95238105 0 0.63492099 0 0.95238106 0 1.58730117 0 0.31746006 0 0.63492099 0 0.95238106 0 0 0 0 0 0-0.63492099 2.53968223-2.22222217 4.12698427-5.39682539 4.44444433-2.22222217 0.31746006-7.3015875-1.90476211-9.52380967-2.85714316C192.47619042 726.76190498 173.42857109 725.80952393 170.88888887 703.26984131zM195.65079365 846.76190469c-4.12698427-1.90476211-5.71428545-4.12698427-6.03174638-6.03174639-0.31746006-4.44444433 6.03174638-8.25396855 6.03174638-8.25396856s197.14285722-95.23809492 562.53968262-117.14285742c0 0-32.06349229 4.12698427-49.20634951 6.98412656 0 0 64.44444463-5.39682539 100.63492032-6.98412656 0 0-304.76190498 24.44444473-568.57142901 117.14285742 0 0-3.49206328 1.58730117-8.25396856 3.49206329C220.73015849 841.04761924 200.09523799 848.98412685 195.65079365 846.76190469zM292.15873057 858.82539658c0 0-38.41269873 17.46031729-45.07936524 14.28571407-4.12698427-1.90476211-5.71428545-4.12698427-6.03174639-6.03174639-0.31746006-4.44444433 6.03174638-8.25396855 6.03174639-8.25396856s197.14285722-95.23809492 562.53968262-117.14285742c0 0-32.06349229 4.12698427-49.20634951 6.98412656 0 0 64.44444463-5.71428545 100.63492031-6.98412656C860.73015869 741.68254004 556.28571464 765.80952383 292.15873057 858.82539658z" fill="#e48727" p-id="5257"></path><path d="M521.68253926 407.07936494c0.63492099-0.31746006 1.26984112-0.63492099 1.9047621-0.95238106C522.95238125 406.44444482 522.31746026 406.76190488 521.68253926 407.07936494z" fill="#e48727" p-id="5258"></path><path d="M543.58730175 400.73015849c-0.31746006 0-0.63492099 0-0.95238105 0-5.07936533 0.63492099-11.42857177 2.22222217-18.41269833 5.07936534 6.98412656-2.85714317 13.33333301-4.7619044 18.41269833-5.07936534C543.2698417 400.73015849 543.2698417 400.73015849 543.58730175 400.73015849z" fill="#e48727" p-id="5259"></path><path d="M515.65079375 409.9365081C515.65079375 409.9365081 515.65079375 409.9365081 515.65079375 409.9365081 515.65079375 409.9365081 515.65079375 409.9365081 515.65079375 409.9365081z" fill="#e48727" p-id="5260"></path><path d="M518.50793692 408.34920606c0.31746006-0.31746006 0.63492099-0.31746006 0.95238105-0.634921C519.46031709 408.03174599 519.14285703 408.34920606 518.50793692 408.34920606z" fill="#e48727" p-id="5261"></path><path d="M367.71428604 637.55555557c-5.39682539-49.20634951 20.31746045-106.6666667 48.88888857-146.03174561 20.31746045-27.61904795 50.79365068-53.33333291 78.41269864-70.15873008-27.61904795 17.14285722-58.09523818 42.85714307-78.41269864 70.15873008C388.0317456 530.57142881 361.99999971 588.34920606 367.71428604 637.55555557c3.49206328 33.65079346 26.98412695 67.30158691 61.2698414 67.61904785C394.69841299 704.85714248 371.52380937 671.20634902 367.71428604 637.55555557z" fill="#e48727" p-id="5262"></path><path d="M496.28571435 420.41269883c0.95238106-0.63492099 1.90476211-1.26984112 2.85714317-1.90476211C498.50793652 419.14285683 497.23809541 419.77777783 496.28571435 420.41269883z" fill="#e48727" p-id="5263"></path><path d="M664.85714258 464.85714307c-28.57142901 39.04761885-54.28571396 96.82539698-48.88888857 146.0317456 3.80952422 33.65079346 27.30158701 67.30158691 61.58730146 67.61904786-34.28571445-0.63492099-57.46031719-34.28571445-61.26984141-67.61904786C610.57142862 561.68254003 636.60317451 504.22222198 664.85714258 464.85714307c34.28571445-46.34920635 97.77777803-87.61904737 126.34920615-90.79365059 0.31746006 0 0.95238106 0 1.26984111 0-0.63492099 0-0.95238106 0-1.58730117 0C762.6349206 377.23809482 699.14285703 418.50793672 664.85714258 464.85714307z" fill="#e48727" p-id="5264"></path><path d="M761.99999961 220.73015849c0-8.88888867-7.3015875-16.19047617-16.50793623-16.19047617C754.69841299 204.53968232 761.99999961 212.15872989 761.99999961 220.73015849z" fill="#e48727" p-id="5265"></path><path d="M508.03174619 308.0317458c0-8.88888867-7.3015875-16.19047617-16.50793623-16.19047617C500.41269864 291.84126963 508.03174619 299.46031719 508.03174619 308.0317458z" fill="#e48727" p-id="5266"></path><path d="M241.04761895 867.07936513c0 1.90476211 1.58730117 4.12698427 6.03174638 6.0317464C242.63492099 871.20634942 241.36507901 869.3015873 241.04761895 867.07936513z" fill="#e48727" p-id="5267"></path><path d="M860.73015869 741.68254004c0 0-304.76190498 24.12698379-568.571429 117.14285743C556.28571464 765.80952383 860.73015869 741.68254004 860.73015869 741.68254004z" fill="#e48727" p-id="5268"></path><path d="M247.07936533 858.82539658c0 0 197.14285722-95.23809492 562.53968262-117.14285742C443.90476162 763.58730166 247.07936533 858.82539658 247.07936533 858.82539658z" fill="#e48727" p-id="5269"></path><path d="M860.73015869 741.68254004c-36.19047656 1.26984112-100.63492031 6.98412656-100.63492031 6.98412657S824.53968213 743.26984122 860.73015869 741.68254004z" fill="#e48727" p-id="5270"></path><path d="M195.65079365 832.47619063c0 0 197.14285722-95.23809492 562.53968262-117.14285743C392.79365088 737.23809482 195.65079365 832.47619063 195.65079365 832.47619063z" fill="#e48727" p-id="5271"></path><path d="M232.47619033 835.96825391c5.07936533-1.90476211 8.25396855-3.49206328 8.25396855-3.49206328C240.73015888 832.47619063 237.55555566 834.0634918 232.47619033 835.96825391z" fill="#e48727" p-id="5272"></path><path d="M809.61904795 715.3333332c0 0-304.76190498 24.12698379-568.571429 117.14285743C504.85714297 739.46031787 809.61904795 715.3333332 809.61904795 715.3333332z" fill="#e48727" p-id="5273"></path><path d="M189.61904727 841.04761924c0 1.90476211 1.58730117 4.12698427 6.03174638 6.03174638C191.52380937 845.17460352 189.9365082 842.95238135 189.61904727 841.04761924z" fill="#e48727" p-id="5274"></path><path d="M758.19047627 715.3333332c0 0-32.06349229 4.12698427-49.20634952 6.98412657C726.12698398 719.46031748 758.19047627 715.3333332 758.19047627 715.3333332z" fill="#e48727" p-id="5275"></path><path d="M225.49206377 731.84126943c0-0.31746006 0-0.95238106 0-1.58730117 0-0.31746006 0-0.63492099-0.31746006-0.95238105 0 0.31746006 0 0.95238106 0.31746006 1.26984111C225.49206377 730.88888925 225.49206377 731.52380937 225.49206377 731.84126943z" fill="#e48727" p-id="5276"></path><path d="M225.17460283 732.79365049C225.17460283 733.11111143 225.17460283 733.11111143 225.17460283 732.79365049 225.17460283 733.11111143 225.17460283 733.11111143 225.17460283 732.79365049z" fill="#e48727" p-id="5277"></path><path d="M222.31746055 715.65079326c0 0.31746006 0 0.63492099 0.31746005 0.95238106C222.6349206 715.9682542 222.31746055 715.65079326 222.31746055 715.65079326c-0.31746006-1.90476211-0.31746006-3.80952422-0.31746006-6.03174638C221.99999961 711.84126992 222.31746055 713.74603203 222.31746055 715.65079326z" fill="#e48727" p-id="5278"></path><path d="M220.41269844 476.28571396c13.65079395-9.84126972 60.00000029-44.44444424 72.38095224-45.71428534 11.42857177-1.26984112 22.85714268 21.26984151 23.49206367 27.936508 0.31746006 1.58730117 0.31746006 2.85714317 0.31746007 4.44444434 0-1.58730117 0-2.85714317-0.31746007-4.44444434-0.63492099-6.66666651-12.0634919-29.20634912-23.49206367-27.936508C280.41269873 431.52380967 234.06349238 466.12698418 220.41269844 476.28571396c-9.84126972 6.98412656-18.09523828 12.0634919-17.77777735 24.44444473 0 0.63492099 0 1.26984112 0 1.90476211 0-0.63492099 0-1.26984112 0-1.90476211C202.0000001 488.0317458 210.57142872 483.26984141 220.41269844 476.28571396z" fill="#e48727" p-id="5279"></path><path d="M259.46031729 485.49206357L259.46031729 485.49206357c-11.11111084 18.09523828-41.58730195 68.25396797-67.61904786 124.44444405-9.20634961 19.68253945-21.58730156 65.07936474-21.2698415 88.88888847-0.31746006-23.49206367 12.0634919-68.88888896 21.2698415-88.57142841C218.19047627 553.74603154 248.66666651 503.26984092 259.46031729 485.49206357z" fill="#e48727" p-id="5280"></path><path d="M816.28571445 459.14285674c0-0.95238106 0-1.90476211-0.31746005-2.85714317 0-0.31746006 0-0.95238106-0.31746006-1.26984111 0 0.63492099 0 0.95238106 0.31746006 1.58730117C816.28571445 457.23809551 816.28571445 458.19047656 816.28571445 459.14285674z" fill="#e48727" p-id="5281"></path><path d="M833.74603174 400.73015849c0.31746006 4.7619044-10.15872979 5.71428545-12.69841289 9.20634961 20.31746045 4.12698427 25.07936484 25.39682578 26.98412695 42.85714307 9.20634961 83.80952402-54.92063497 206.34920596-159.99999961 225.07936524-3.80952422 0.63492099-7.3015875 0.95238106-10.79365078 0.95238106 3.49206328 0 7.3015875-0.31746006 11.11111084-0.95238106 105.07936464-19.04761933 169.20634922-141.26984122 159.99999961-225.07936524-1.90476211-17.46031729-6.66666651-39.04761885-26.98412695-42.85714307C823.90476201 406.44444482 834.69841279 405.17460283 833.74603174 400.73015849c-0.95238106-9.52380967-23.80952373-27.61904795-41.26984101-26.34920596C810.57142901 373.74603154 832.79365068 391.20634883 833.74603174 400.73015849z" fill="#e48727" p-id="5282"></path><path d="M796.603175 432.47619072c6.03174638-0.63492099 10.79365078 2.85714317 13.96825401 7.93650762C807.39682578 435.33333301 802.63492051 431.52380967 796.603175 432.47619072c-3.49206328 0.31746006-6.98412656 2.22222217-10.15872979 4.76190439C789.61904756 434.69841289 792.79365078 432.79365078 796.603175 432.47619072z" fill="#e48727" p-id="5283"></path><path d="M765.80952383 444.22222256c0.31746006 2.85714317 1.58730117 7.93650762 5.07936533 7.3015875 1.58730117-0.31746006 3.80952422-2.53968223 6.66666651-5.71428545-2.85714317 2.85714317-5.07936533 5.39682539-6.66666651 5.39682539C767.71428594 451.52380918 766.12698388 446.76190479 765.80952383 444.22222256c-72.06349219 50.47619063-100.63492031 113.9682542-100.31746026 158.73015849C665.49206357 557.87301582 693.74603164 494.6984123 765.80952383 444.22222256z" fill="#e48727" p-id="5284"></path><path d="M796.603175 432.47619072c-3.49206328 0.31746006-6.98412656 2.22222217-10.15872979 4.76190439-3.17460322 2.53968223-6.03174638 5.71428545-8.5714286 8.57142862-2.85714317 3.17460322-5.07936533 5.71428545-6.66666651 5.71428544-3.49206328 0.31746006-5.07936533-4.7619044-5.07936533-7.3015875-72.06349219 50.47619063-100.63492031 113.65079326-100.31746026 158.73015851 0 1.26984112 0 2.85714317 0 4.12698427 0.31746006 8.25396855 5.07936533 33.65079346 17.46031729 32.06349229 13.33333301-1.26984112 39.68253984-20.95238057 48.57142851-31.42857129l38.73015879-43.80952412c16.50793623-22.53968262 46.66666641-75.55555547 45.71428535-105.07936465 0-0.95238106 0-1.90476211-0.31746005-2.85714316 0-0.31746006 0-0.95238106-0.31746006-1.58730118-0.63492099-4.44444433-2.53968223-9.84126972-5.3968254-14.603175C807.39682578 435.65079394 802.63492051 431.84126973 796.603175 432.47619072z" fill="#e48727" p-id="5285"></path><path d="M731.84126943 608.03174638c-8.88888867 10.47619073-35.23809551 29.84127011-48.57142851 31.4285713-12.38095195 1.26984112-16.82539717-23.80952373-17.46031728-32.06349229 0-1.26984112 0-2.85714317 0-4.12698427 0 1.58730117 0 2.85714317 0 4.44444433 0.31746006 8.25396855 5.07936533 33.65079346 17.46031728 32.06349228C696.28571386 638.19047656 722.6349207 618.50793623 731.84126943 608.03174638l38.73015879-43.49206318c16.50793623-22.53968262 46.98412734-75.87301552 45.71428535-105.07936464 0.95238106 29.52380918-29.20634912 82.53968291-45.71428535 105.07936464L731.84126943 608.03174638z" fill="#e48727" p-id="5286"></path><path d="M786.44444434 437.23809512c-3.17460322 2.53968223-6.03174638 5.71428545-8.57142862 8.57142861C780.41269883 443.26984151 783.26984112 440.09523828 786.44444434 437.23809512z" fill="#e48727" p-id="5287"></path><path d="M810.57142901 440.41269834c2.85714317 4.44444433 4.44444433 10.15872979 5.39682539 14.603175C815.3333334 450.57142901 813.42857128 444.85714268 810.57142901 440.41269834z" fill="#e48727" p-id="5288"></path><path d="M239.14285684 204.53968232c-8.88888867 0-16.50793623 7.3015875-16.50793624 16.19047617C222.95238066 212.15872989 230.25396816 204.53968232 239.14285684 204.53968232z" fill="#e48727" p-id="5289"></path><path d="M745.80952344 239.14285684c8.88888867 0 16.50793623-7.3015875 16.50793623-16.19047617C761.99999961 231.52380928 754.69841299 239.14285684 745.80952344 239.14285684z" fill="#e48727" p-id="5290"></path><path d="M515.65079375 409.61904805c0.95238106-0.31746006 1.90476211-0.95238106 2.85714317-1.26984112C517.55555586 408.98412705 516.92063487 409.30158711 515.65079375 409.61904805z" fill="#e48727" p-id="5291"></path><path d="M523.58730136 406.44444482c0.31746006 0 0.63492099-0.31746006 0.95238106-0.31746005C524.22222237 406.12698388 523.90476231 406.12698388 523.58730136 406.44444482z" fill="#e48727" p-id="5292"></path><path d="M519.77777802 408.03174599c0.63492099-0.31746006 1.26984112-0.63492099 1.90476211-0.95238105C521.04761914 407.396825 520.41269815 407.71428594 519.77777802 408.03174599z" fill="#e48727" p-id="5293"></path><path d="M479.46031719 639.14285674c-2.53968223 2.22222217-5.39682539 4.7619044-8.57142862 7.3015875C474.0634918 643.90476201 476.92063496 641.36507979 479.46031719 639.14285674z" fill="#e48727" p-id="5294"></path><path d="M499.46031758 418.50793672c5.71428545-3.17460322 11.11111084-6.34920645 16.19047617-8.57142862C510.25396836 412.47619033 504.85714297 415.33333349 499.46031758 418.50793672z" fill="#e48727" p-id="5295"></path><path d="M495.01587324 421.04761895c0.31746006-0.31746006 0.95238106-0.63492099 1.26984111-0.95238106C495.9682543 420.73015888 495.65079336 421.04761895 495.01587324 421.04761895z" fill="#e48727" p-id="5296"></path><path d="M470.88888857 646.44444424c-3.17460322 2.53968223-6.66666651 5.07936533-10.15872978 7.3015875C464.53968213 651.52380957 467.71428536 648.98412734 470.88888857 646.44444424z" fill="#e48727" p-id="5297"></path><path d="M522.95238125 477.87301602c-3.49206328 0.31746006-5.07936533-4.7619044-5.07936533-7.3015875C517.87301592 473.11111074 519.46031709 478.50793613 522.95238125 477.87301602z" fill="#e48727" p-id="5298"></path><path d="M585.80952383 427.07936533c-1.26984112-9.52380967-24.44444473-27.93650801-42.22222208-26.34920596C561.68254003 399.46031738 584.53968271 417.55555566 585.80952383 427.07936533c0.31746006 4.7619044-10.15872979 5.71428545-13.33333301 9.20634961 20.31746045 4.12698427 25.07936484 25.39682578 26.98412696 42.85714306 9.20634961 83.80952402-54.92063497 206.34920596-159.99999961 225.07936525-3.80952422 0.63492099-7.3015875 0.95238106-10.79365079 0.95238105 3.49206328 0 7.3015875-0.31746006 11.11111085-0.95238105 105.07936464-19.04761933 169.20634922-141.26984122 159.9999996-225.07936524-1.90476211-17.46031729-6.66666651-39.04761885-26.66666689-42.85714307C575.96825411 433.11111084 586.44444482 431.84126973 585.80952383 427.07936533z" fill="#e48727" p-id="5299"></path><path d="M517.87301592 470.57142852c-73.65079336 51.74603174-101.90476231 116.82539648-100.00000019 161.90476171C415.96825362 587.396825 444.22222256 522.31746026 517.87301592 470.57142852z" fill="#e48727" p-id="5300"></path><path d="M435.01587295 666.12698369c-3.49206328 0.31746006-6.34920645-1.26984112-8.57142861-4.12698427C428.66666651 664.53968252 431.52380967 666.44444463 435.01587295 666.12698369c6.66666651-0.63492099 16.50793623-6.03174638 26.0317459-12.38095195C451.52380918 660.09523818 441.68253945 665.49206357 435.01587295 666.12698369z" fill="#e48727" p-id="5301"></path><path d="M568.0317456 482.95238135c0 0.63492099 0 1.26984112 0 1.90476211C568.0317456 483.90476152 568.0317456 483.26984141 568.0317456 482.95238135c-0.95238106-8.57142862-6.34920645-23.49206367-17.46031728-24.12698379C561.36507911 459.46031768 566.76190449 474.38095273 568.0317456 482.95238135z" fill="#e48727" p-id="5302"></path><path d="M435.01587295 666.12698369c6.66666651-0.63492099 16.50793623-6.03174638 26.0317459-12.38095195 3.49206328-2.53968223 6.98412656-5.07936533 10.15872979-7.3015875 3.17460322-2.53968223 6.03174638-5.07936533 8.5714286-7.3015875 1.58730117-1.58730117 2.85714317-2.85714317 4.12698429-4.12698427l38.73015878-43.80952413c16.50793623-22.85714268 46.98412734-76.82539658 45.71428536-106.03174571 0-0.63492099 0-1.26984112 0-1.90476211-0.95238106-8.57142862-6.66666651-23.49206367-17.46031729-24.12698378-0.63492099 0-1.58730117 0-2.22222216 0-11.11111084 1.26984112-20.95238057 18.73015839-25.39682579 19.04761933-3.49206328 0.31746006-5.07936533-4.7619044-5.07936533-7.3015875-73.3333333 51.74603174-101.90476231 116.82539648-100.0000002 161.90476172 0 0.31746006 0 0.95238106 0 1.58730117 0.31746006 4.12698427 1.58730117 12.69841289 4.12698427 19.68253946 0.63492099 1.90476211 1.58730117 3.49206328 2.22222218 5.07936533 0.63492099 1.26984112 1.58730117 2.22222217 2.22222217 3.17460322C428.66666651 664.53968252 431.52380967 666.44444463 435.01587295 666.12698369z" fill="#e48727" p-id="5303"></path><path d="M522.31746026 590.88888916c16.82539717-22.85714268 47.61904746-77.14285752 45.71428534-106.0317457C569.3015876 514.0634917 538.82539648 568.0317456 522.31746026 590.88888916z" fill="#e48727" p-id="5304"></path><path d="M417.55555566 632.47619023c0 0.31746006 0 0.95238106 1e-8 1.58730118 0.31746006 4.12698427 1.58730117 12.69841289 4.12698427 19.68253945-2.85714317-7.3015875-3.80952422-15.55555518-4.12698427-19.68253945C417.55555566 633.42857128 417.55555566 632.79365117 417.55555566 632.47619023z" fill="#e48727" p-id="5305"></path><path d="M424.22222217 658.50793613c-0.95238106-1.58730117-1.58730117-3.17460322-2.22222217-5.07936533C422.63492099 655.33333291 423.26984112 657.23809502 424.22222217 658.50793613z" fill="#e48727" p-id="5306"></path><path d="M426.44444434 662.00000029c-0.95238106-0.95238106-1.58730117-1.90476211-2.22222217-3.17460322C424.85714316 659.77777812 425.49206328 661.04761924 426.44444434 662.00000029z" fill="#e48727" p-id="5307"></path><path d="M548.34920615 458.82539668c0.63492099 0 1.58730117 0 2.22222218 0C549.9365082 458.82539668 549.30158721 458.82539668 548.34920615 458.82539668c-11.42857177 1.26984112-21.26984151 18.73015839-25.39682578 19.04761934C527.39682559 477.55555596 537.23809531 460.09523779 548.34920615 458.82539668z" fill="#e48727" p-id="5308"></path><path d="M239.14285684 291.84126963c-8.88888867 0-16.50793623 7.3015875-16.50793624 16.19047617C222.95238066 299.46031719 230.25396816 291.84126963 239.14285684 291.84126963z" fill="#e48727" p-id="5309"></path><path d="M491.52380997 326.44444414c8.88888867 0 16.50793623-7.3015875 16.50793622-16.19047617C508.03174619 318.82539658 500.41269864 326.44444414 491.52380997 326.44444414z" fill="#e48727" p-id="5310"></path><path d="M258.50793623 484.53968252l-39.9999999 20.31746045c-1.90476211 1.26984112-9.52380967 5.39682539-11.42857178 5.71428545-3.80952422 0.31746006-4.44444433-4.44444433-4.44444434-7.61904756 0 3.17460322 0.63492099 8.25396855 4.44444434 7.93650761 1.90476211-0.31746006 9.84126972-4.44444433 11.42857178-5.71428544L258.50793623 484.53968252l0.95238106 0.95238105c0 0 0 0 0 0L258.50793623 484.53968252z" fill="#e48727" p-id="5311"></path><path d="M222.31746055 709.61904776c0.63492099-31.42857128 26.98412695-90.15873047 39.04761885-115.87301631 49.20634951-108.57142881 55.55555596-120.95238076 55.55555595-130.79365049 0 10.15872979-6.34920645 22.85714268-55.55555595 130.79365049C249.3015875 619.14285722 222.6349206 678.19047646 222.31746055 709.61904776z" fill="#e48727" p-id="5312"></path><path d="M225.49206377 731.84126943c0 0.31746006 0 0.63492099 0 0.95238106C225.17460283 732.47619043 225.49206377 732.15873037 225.49206377 731.84126943z" fill="#e48727" p-id="5313"></path><path d="M219.77777744 737.23809482c2.85714317-0.31746006 4.7619044-1.90476211 5.39682539-4.44444433C224.85714278 735.33333359 222.95238066 736.92063477 219.77777744 737.23809482c-2.22222217 0-7.3015875-1.90476211-9.52380966-3.49206328-17.77777734-7.3015875-36.82539668-8.25396855-39.36507979-31.11111123 0-1.26984112-0.31746006-2.85714317-0.31746006-4.44444434 0 1.58730117 0 3.17460322 0.31746006 4.44444434 2.53968223 22.85714268 21.58730156 23.49206367 39.36507979 31.42857129C212.47619082 735.65079365 217.55555527 737.55555576 219.77777744 737.23809482z" fill="#e48727" p-id="5314"></path><path d="M222.6349206 716.60317432c0.63492099 4.44444433 1.90476211 8.57142862 2.53968223 13.01587295C224.53968271 725.17460292 223.26984161 721.04761865 222.6349206 716.60317432z" fill="#e48727" p-id="5315"></path><path d="M195.65079365 832.47619063c0 0-6.34920645 3.80952422-6.03174638 8.25396854C189.30158721 836.6031749 195.65079365 832.47619063 195.65079365 832.47619063z" fill="#e48727" p-id="5316"></path><path d="M195.65079365 846.76190469c4.7619044 2.22222217 25.07936484-6.03174638 36.82539668-10.79365078C220.73015849 841.04761924 200.09523799 848.98412685 195.65079365 846.76190469z" fill="#e48727" p-id="5317"></path><path d="M247.07936533 873.11111152c6.66666651 3.17460322 45.07936523-14.28571406 45.07936524-14.28571406S253.42857177 876.28571386 247.07936533 873.11111152z" fill="#e48727" p-id="5318"></path><path d="M247.07936533 858.82539658c0 0-6.34920645 3.80952422-6.03174639 8.25396855C240.73015888 862.95238086 247.07936533 858.82539658 247.07936533 858.82539658z" fill="#e48727" p-id="5319"></path></svg>